<?xml version="1.0" encoding="UTF-8"?>
<svg xmlns="http://www.w3.org/2000/svg" viewBox="0 0 2443.26 751.77">
  <g>
    <path d="M1007.02,219.29V51.64h66.23V214.27c0,33.11,5.45,52.81,35.63,52.81s35.63-19.7,35.63-52.81V51.64h66.23V219.29c0,69.58-39.82,103.53-101.85,103.53s-101.85-34.37-101.85-103.53h0Z"/>
    <path d="M1318.03,51.64V318.21h-66.64V51.64h66.64Z"/>
    <path d="M1443.78,47.03c63.29,0,96.4,36.89,96.4,90.12v6.71h-59.1v-4.19c0-25.57-11.74-41.91-37.72-41.91s-28.08,10.06-28.08,25.57,7.13,19.7,20.96,24.73l39.4,12.99c43.17,14.25,68.74,35.63,68.74,78.38s-40.24,83.83-93.89,83.83-100.6-35.63-100.6-89.7v-5.87h59.52v3.77c0,25.57,13.83,41.08,40.66,41.08s29.76-9.22,29.76-24.73-7.54-20.54-23.89-25.99l-40.66-12.57c-36.05-11.32-62.87-31.86-62.87-78.38s35.63-83.83,91.37-83.83h0Z"/>
    <path d="M1644.13,51.64V318.21h-66.64V51.64h66.64Z"/>
    <path d="M1826.46,51.64l75.45,266.58h-67.06l-13.83-53.23h-74.19l-13.83,53.23h-61.61l75.45-266.58h79.64Zm-65.81,160.95h46.53l-21.8-84.25h-1.68l-22.63,84.25h-.42Z"/>
    <path d="M2066.21,191.21h1.68V51.64h60.78V318.21h-51.14l-86.34-151.73h-1.68v151.73h-61.2V51.64h62.45l75.45,139.58h0Z"/>
    <path d="M2311.41,51.64l75.45,266.58h-67.06l-13.83-53.23h-74.19l-13.83,53.23h-61.61l75.45-266.58h79.64Zm-66.23,160.95h46.53l-21.8-84.25h-1.68l-22.63,84.25h-.42Z"/>
    <path d="M867.03,47.03c-72.51,0-106.46,51.97-106.46,128.68v18.44c0,22.63,2.93,43.17,9.22,60.78h28.92l-6.71,11.74-8.8,15.51c17.6,25.57,45.27,40.24,83.83,40.24,72.51,0,106.46-51.97,106.46-128.68v-18.44c0-76.7-34.37-128.68-106.46-128.68v.42Zm37.72,161.37c0,41.5-13.41,58.68-37.72,58.68s-37.72-17.19-37.72-58.68v-47.36c0-41.5,13.41-58.68,37.72-58.68s37.72,17.19,37.72,58.68v47.36Z"/>
    <polygon points="602.55 51.64 602.55 318.21 754.28 318.21 784.87 262.89 669.61 262.89 669.61 51.64 602.55 51.64"/>
  </g>
  <g>
    <path d="M812.12,384.44h34.79v10.9h-23.89v12.16h21.38v10.48h-21.38v12.57h23.89v10.9h-35.21v-57h.42Z"/>
    <path d="M909.78,383.6c10.06,0,18.86,5.03,24.31,12.57l-9.64,5.87c-3.35-5.03-8.38-7.96-14.67-7.96-10.48,0-18.02,8.8-18.02,18.44s7.54,18.44,18.02,18.44,11.32-2.93,14.67-7.96l9.64,5.87c-5.45,7.96-13.83,12.57-24.31,12.57-18.02,0-29.34-12.99-29.34-29.34s11.74-29.34,29.34-29.34v.84Z"/>
    <path d="M964.69,412.94c0-16.35,12.57-29.34,29.34-29.34s29.34,12.99,29.34,29.34-12.99,29.34-29.34,29.34-29.34-12.57-29.34-29.34Zm47.36,0c0-10.06-7.54-18.86-18.02-18.86s-18.02,8.8-18.02,18.86,7.96,18.44,18.02,18.44,18.02-8.38,18.02-18.44Z"/>
    <path d="M1060.25,384.44h10.48l28.92,38.14v-38.14h11.32v57h-10.48l-28.92-38.14v38.14h-11.32v-57Z"/>
    <path d="M1147.44,412.94c0-16.35,12.57-29.34,29.34-29.34s29.34,12.99,29.34,29.34-12.99,29.34-29.34,29.34-29.34-12.57-29.34-29.34Zm47.36,0c0-10.06-7.54-18.86-18.02-18.86s-18.02,8.8-18.02,18.86,7.96,18.44,18.02,18.44,18.02-8.38,18.02-18.44Z"/>
    <path d="M1305.88,384.44v57h-11.32v-41.5l-13.83,41.5h-12.57l-13.83-41.08v41.08h-11.32v-57h17.19l14.25,43.59,14.25-43.59h17.19Z"/>
    <path d="M1345.69,384.44h11.32v57h-11.32v-57Z"/>
    <path d="M1422.82,383.6c10.06,0,18.86,5.03,24.31,12.57l-9.64,5.87c-3.35-5.03-8.38-7.96-14.67-7.96-10.48,0-18.02,8.8-18.02,18.44s7.54,18.44,18.02,18.44,11.32-2.93,14.67-7.96l9.64,5.87c-5.45,7.96-13.83,12.57-24.31,12.57-18.02,0-29.34-12.99-29.34-29.34s11.74-29.34,29.34-29.34v.84Z"/>
    <path d="M1527.19,384.44h22.21c18.02,0,28.5,12.57,28.5,28.5s-10.9,28.5-28.5,28.5h-22.21v-57Zm21.8,46.11c9.64,0,16.77-6.29,16.77-18.02s-7.13-17.6-16.77-17.6h-10.9v35.63h10.9Z"/>
    <path d="M1613.95,384.44h34.79v10.9h-23.89v12.16h21.38v10.48h-21.38v12.57h23.89v10.9h-35.21v-57h.42Z"/>
    <path d="M1680.59,384.44h12.16l16.35,45.27,16.35-45.27h11.74l-21.38,57h-13.83l-21.38-57h0Z"/>
    <path d="M1771.13,384.44h34.79v10.9h-23.89v12.16h21.38v10.48h-21.38v12.57h23.89v10.9h-35.21v-57h.42Z"/>
    <path d="M1843.64,384.44h12.57v46.11h23.05v10.9h-35.21v-57h-.42Z"/>
    <path d="M1908.19,412.94c0-16.35,12.57-29.34,29.34-29.34s29.34,12.99,29.34,29.34-12.99,29.34-29.34,29.34-29.34-12.57-29.34-29.34Zm47.36,0c0-10.06-7.54-18.86-18.02-18.86s-18.02,8.8-18.02,18.86,7.96,18.44,18.02,18.44,18.02-8.38,18.02-18.44Z"/>
    <path d="M2003.76,384.44h20.54c11.32,0,19.7,8.38,19.7,19.28s-7.96,19.28-19.7,19.28h-9.22v18.86h-11.32v-57.42Zm20.54,27.66c5.03,0,8.38-3.77,8.38-8.8s-3.35-8.8-8.38-8.8h-9.22v17.19h9.22v.42Z"/>
    <path d="M2142.08,384.44v57h-11.32v-41.5l-13.83,41.5h-12.57l-13.83-41.08v41.08h-11.32v-57h17.19l14.25,43.59,14.25-43.59h17.19Z"/>
    <path d="M2181.9,384.44h34.79v10.9h-23.89v12.16h21.38v10.48h-21.38v12.57h23.89v10.9h-35.21v-57h.42Z"/>
    <path d="M2254.41,384.44h10.48l28.92,38.14v-38.14h11.32v57h-10.48l-28.92-38.14v38.14h-11.32v-57Z"/>
    <path d="M2357.52,394.92h-17.6v-10.48h46.53v10.48h-17.6v46.53h-11.32v-46.53h0Z"/>
  </g>
  <g>
    <path d="M63.52,33.19c-2.51,0-4.19-1.68-4.61-4.19,0-2.51,1.68-4.61,4.19-5.03l70-7.13c2.51,0,4.61,1.68,5.03,4.19,0,2.51-1.68,4.61-4.19,5.03l-70,7.13h-.42Z"/>
    <path d="M63.94,53.31l226.34-25.57c2.51,0,4.19-2.51,4.19-5.03s-2.51-4.19-5.03-4.19L62.68,44.51c-2.51,0-4.19,2.51-4.19,5.03s2.1,4.19,4.61,4.19,0,0,.42,0l.42-.42Z"/>
    <path d="M63.52,73.85L428.6,26.91c2.51,0,4.19-2.51,3.77-5.03,0-2.51-2.51-4.19-5.03-3.77L62.26,65.05c-2.51,0-4.19,2.51-3.77,5.03,0,2.1,2.1,3.77,4.61,3.77s0,0,.42,0Z"/>
    <path d="M63.1,94.81L488.96,33.61c2.51,0,4.19-2.51,3.77-5.03,0-2.51-2.51-4.19-5.03-3.77L61.84,86.01c-2.51,0-4.19,2.51-3.77,5.03,0,2.1,2.1,3.77,4.61,3.77s.42,0,.84,0h-.42Z"/>
    <path d="M62.68,116.18L507.4,45.35c2.51,0,4.19-2.51,3.77-5.03,0-2.51-2.51-4.19-5.03-3.77L61.42,107.38c-2.51,0-4.19,2.51-3.77,5.03,0,2.1,2.1,3.77,4.61,3.77s.42,0,.84,0h-.42Z"/>
    <path d="M62.68,137.98L497.34,61.7c2.51-.42,4.19-2.93,3.77-5.45s-2.93-4.19-5.45-3.77L61.01,128.76c-2.51,.42-4.19,2.93-3.77,5.45,0,2.1,2.1,3.77,4.61,3.77s.42,0,.84,0Z"/>
    <path d="M62.26,159.78L505.72,75.53c2.51-.42,4.19-2.93,3.77-5.45s-2.93-4.19-5.45-3.77L60.59,150.97c-2.51,.42-4.19,2.93-3.77,5.45,0,2.1,2.51,3.77,4.61,3.77s.42,0,.84,0v-.42Z"/>
    <path d="M61.84,182.41L497.34,93.13c2.51-.42,4.19-2.93,3.35-5.45-.42-2.51-2.93-4.19-5.45-3.35L60.17,173.19c-2.51,.42-4.19,2.93-3.35,5.45,.42,2.1,2.51,3.77,4.61,3.77s.42,0,.84,0h-.42Z"/>
    <path d="M61.42,205.04l451.42-99.34c2.51-.42,4.19-2.93,3.35-5.45-.84-2.51-2.93-4.19-5.45-3.35L59.33,196.24c-2.51,.42-4.19,2.93-3.35,5.45,.42,2.1,2.51,3.77,4.61,3.77s.84,0,.84,0v-.42Z"/>
    <path d="M77.77,224.32L507.82,122.89c2.51-.42,3.77-2.93,3.35-5.45-.42-2.51-2.93-3.77-5.45-3.35L75.68,215.52c-2.51,.42-3.77,2.93-3.35,5.45,.42,2.1,2.51,3.35,4.61,3.35s.84,0,.84,0Z"/>
    <path d="M89.51,244.44l432.14-108.56c2.51-.42,3.77-2.93,3.35-5.45-.42-2.51-2.93-3.77-5.45-3.35L87.41,235.64c-2.51,.42-3.77,2.93-3.35,5.45,.42,2.1,2.51,3.35,4.19,3.35s.84,0,1.26,0Z"/>
    <path d="M94.96,266.66l441.36-117.36c2.51-.84,3.77-2.93,3.35-5.45-.84-2.51-2.93-3.77-5.45-3.35L92.44,257.86c-2.51,.84-3.77,2.93-3.35,5.45,.42,2.1,2.51,3.35,4.19,3.35s.84,0,1.26,0h.42Z"/>
    <path d="M99.15,288.87l401.12-112.75c2.51-.84,3.77-3.35,3.35-5.45-.84-2.51-3.35-3.77-5.45-3.35L96.63,280.07c-2.51,.84-3.77,3.35-2.93,5.45,.42,2.1,2.51,3.35,4.19,3.35s.84,0,1.26,0Z"/>
    <path d="M111.3,309.41l402.8-119.46c2.51-.84,3.77-3.35,2.93-5.45-.84-2.51-3.35-3.77-5.45-2.93L108.79,300.61c-2.51,.84-3.77,3.35-2.93,5.45,.42,2.1,2.51,3.35,4.19,3.35s.84,0,1.26,0Z"/>
    <path d="M116.33,332.05l389.81-121.55c2.51-.84,3.77-3.35,2.93-5.87-.84-2.51-3.35-3.77-5.87-2.93L113.4,323.24c-2.51,.84-3.77,3.35-2.93,5.87,.42,2.1,2.51,3.35,4.19,3.35s.84,0,1.26,0l.42-.42Z"/>
    <path d="M130.58,351.75l341.19-111.49c2.51-.84,3.77-3.35,2.93-5.87-.84-2.51-3.35-3.77-5.87-2.93L127.65,342.94c-2.51,.84-3.77,3.35-2.93,5.87,.42,2.1,2.51,2.93,4.19,2.93s.84,0,1.26,0h.42Z"/>
    <path d="M136.87,373.96l330.71-113.59c2.51-.84,3.77-3.35,2.93-5.87-.84-2.51-3.35-3.77-5.87-2.93l-330.71,113.59c-2.51,.84-3.77,3.35-2.93,5.87,.84,1.68,2.51,2.93,4.19,2.93h1.68Z"/>
    <path d="M135.61,399.53l324.42-116.1c2.51-.84,3.77-3.35,2.93-5.87-.84-2.51-3.35-3.77-5.87-2.93l-324.42,116.1c-2.51,.84-3.77,3.35-2.93,5.87,.84,1.68,2.51,2.93,4.19,2.93h1.68Z"/>
    <path d="M128.91,427.19l319.39-119.46c2.51-.84,3.35-3.35,2.51-5.87-.84-2.51-3.35-3.35-5.87-2.51L125.55,418.81c-2.51,.84-3.35,3.35-2.51,5.87,.84,1.68,2.51,2.93,4.19,2.93h1.68v-.42Z"/>
    <path d="M110.88,459.89l334.48-129.94c2.51-.84,3.35-3.35,2.51-5.87-.84-2.51-3.35-3.35-5.87-2.51L107.53,451.5c-2.51,.84-3.35,3.35-2.51,5.87,.84,1.68,2.51,2.93,4.19,2.93h1.68v-.42Z"/>
    <path d="M109.21,486.71l324.42-131.19c2.51-.84,3.35-3.77,2.51-5.87-.84-2.51-3.77-3.35-5.87-2.51L105.85,478.33c-2.51,.84-3.35,3.77-2.51,5.87,.84,1.68,2.51,2.93,4.19,2.93h1.68v-.42Z"/>
    <path d="M105.44,515.21l330.71-138.74c2.51-.84,3.35-3.77,2.51-5.87-.84-2.51-3.77-3.35-5.87-2.51L102.08,506.83c-2.51,.84-3.35,3.77-2.51,5.87,.84,1.68,2.51,2.93,4.19,2.93h1.68v-.42Z"/>
    <path d="M109.63,540.36l345.38-150.47c2.1-.84,3.35-3.77,2.51-5.87-.84-2.1-3.77-3.35-5.87-2.51L105.85,531.98c-2.1,.84-3.35,3.77-2.51,5.87,.84,1.68,2.51,2.93,4.19,2.93h1.68l.42-.42Z"/>
    <path d="M95.8,574.31l409.51-184.43c2.1-.84,3.35-3.77,2.1-5.87-.84-2.1-3.77-3.35-5.87-2.1L92.02,565.93c-2.1,.84-3.35,3.77-2.1,5.87,.84,1.68,2.51,2.51,4.19,2.51h1.68Z"/>
    <path d="M180.04,563l373.04-173.95c2.1-1.26,3.35-3.77,2.1-5.87-1.26-2.1-3.77-3.35-5.87-2.1l-373.04,173.95c-2.1,1.26-3.35,3.77-2.1,5.87,.84,1.68,2.51,2.51,4.19,2.51s1.26,0,2.1-.42h-.42Z"/>
    <path d="M79.45,609.94l67.9-31.44c2.1-1.26,3.35-3.77,2.1-5.87s-3.77-3.35-5.87-2.1l-67.9,31.44c-2.1,1.26-3.35,3.77-2.1,5.87,.84,1.68,2.51,2.51,4.19,2.51s1.26,0,2.1-.42h-.42Z"/>
    <path d="M135.61,611.62l25.99-12.57c2.1-1.26,3.35-3.77,2.1-5.87s-3.77-3.35-5.87-2.1l-25.99,12.57c-2.1,1.26-3.35,3.77-2.1,5.87,.84,1.68,2.51,2.51,4.19,2.51s1.26,0,2.1-.42h-.42Z"/>
    <path d="M182.14,588.98l417.05-200.77c2.1-1.26,3.35-3.77,2.1-5.87s-3.77-3.35-5.87-2.1l-417.05,200.77c-2.1,1.26-3.35,3.77-2.1,5.87,.84,1.68,2.51,2.51,4.19,2.51s1.26,0,2.1-.42h-.42Z"/>
    <path d="M192.62,611.2l451.42-224.24c2.1-1.26,3.35-3.77,2.1-6.29-1.26-2.1-3.77-3.35-6.29-2.1l-451.42,224.24c-2.1,1.26-3.35,3.77-2.1,6.29,.84,1.68,2.51,2.51,4.19,2.51s1.26,0,2.1-.42Z"/>
    <path d="M224.47,622.52l462.32-236.82c2.1-1.26,2.93-3.77,2.1-6.29-1.26-2.1-3.77-2.93-6.29-2.1l-462.32,236.82c-2.1,1.26-2.93,3.77-2.1,6.29,.84,1.68,2.51,2.51,4.19,2.51s1.26,0,2.1-.42Z"/>
    <path d="M251.3,635.93l471.96-249.39c2.1-1.26,2.93-3.77,2.1-6.29-1.26-2.1-3.77-2.93-6.29-2.1l-471.96,249.39c-2.1,1.26-2.93,3.77-2.1,6.29,.84,1.68,2.51,2.51,4.19,2.51s1.26,0,2.1-.42Z"/>
    <path d="M284.83,645.57l431.3-234.3c2.1-1.26,2.93-3.77,1.68-6.29-1.26-2.1-3.77-2.93-6.29-1.68l-431.3,234.3c-2.1,1.26-2.93,3.77-1.68,6.29,.84,1.68,2.51,2.51,4.19,2.51s1.68,0,2.1-.42v-.42Z"/>
    <path d="M392.97,612.46l315.2-176.04c2.1-1.26,2.93-4.19,1.68-6.29s-4.19-2.93-6.29-1.68l-315.2,176.04c-2.1,1.26-2.93,4.19-1.68,6.29,.84,1.68,2.51,2.51,3.77,2.51s1.68,0,2.1-.42l.42-.42Z"/>
    <path d="M320.88,652.69l36.89-20.54c2.1-1.26,2.93-4.19,1.68-6.29-1.26-2.1-4.19-2.93-6.29-1.68l-36.89,20.54c-2.1,1.26-2.93,4.19-1.68,6.29,.84,1.68,2.51,2.51,3.77,2.51s1.68,0,2.1-.42l.42-.42Z"/>
    <path d="M429.44,617.49l281.67-161.79c2.1-1.26,2.93-4.19,1.68-6.29s-4.19-2.93-6.29-1.68l-281.67,161.79c-2.1,1.26-2.93,4.19-1.68,6.29,.84,1.26,2.51,2.1,3.77,2.1s1.68,0,2.1-.42h.42Z"/>
    <path d="M442.85,635.09l184.01-108.56c2.1-1.26,2.93-4.19,1.68-6.29s-4.19-2.93-6.29-1.68l-184.01,108.56c-2.1,1.26-2.93,4.19-1.68,6.29,.84,1.26,2.51,2.1,3.77,2.1s1.68,0,2.1-.84l.42,.42Z"/>
    <path d="M670.87,500.96l51.14-30.18c2.1-1.26,2.93-4.19,1.68-6.29s-4.19-2.93-6.29-1.68l-51.14,30.18c-2.1,1.26-2.93,4.19-1.68,6.29,.84,1.26,2.51,2.1,3.77,2.1s1.68,0,2.1-.84l.42,.42Z"/>
    <path d="M458.36,651.86l168.08-101.85c2.1-1.26,2.93-4.19,1.68-6.29-1.26-2.1-4.19-2.93-6.29-1.68l-168.08,101.85c-2.1,1.26-2.93,4.19-1.68,6.29,.84,1.26,2.51,2.1,3.77,2.1s1.68,0,2.51-.84v.42Z"/>
    <path d="M687.63,513.12l45.69-27.66c2.1-1.26,2.93-4.19,1.68-6.29s-4.19-2.93-6.29-1.68l-45.69,27.66c-2.1,1.26-2.93,4.19-1.68,6.29,.84,1.26,2.51,2.1,3.77,2.1s1.68,0,2.51-.84v.42Z"/>
    <path d="M489.79,658.56l168.08-104.37c2.1-1.26,2.93-4.19,1.26-6.29-1.26-2.1-4.19-2.93-6.29-1.26l-168.08,104.37c-2.1,1.26-2.93,4.19-1.26,6.29,.84,1.26,2.51,2.1,3.77,2.1s1.68,0,2.51-.84Z"/>
    <path d="M709.01,522.34l31.44-19.7c2.1-1.26,2.93-4.19,1.26-6.29-1.26-2.1-4.19-2.93-6.29-1.26l-31.44,19.7c-2.1,1.26-2.93,4.19-1.26,6.29,.84,1.26,2.51,2.1,3.77,2.1s1.68,0,2.51-.84Z"/>
    <path d="M499.85,678.26l212.93-135.8c2.1-1.26,2.93-4.19,1.26-6.29-1.26-2.1-4.19-2.93-6.29-1.26l-212.93,135.8c-2.1,1.26-2.93,4.19-1.26,6.29,.84,1.26,2.51,2.1,3.77,2.1s1.68,0,2.51-.84Z"/>
    <path d="M728.71,532.4l17.6-10.9c2.1-1.26,2.93-4.19,1.26-6.29-1.26-2.1-4.19-2.93-6.29-1.26l-17.6,10.9c-2.1,1.26-2.93,4.19-1.26,6.29,.84,1.26,2.51,2.1,3.77,2.1s1.68,0,2.51-.84Z"/>
    <path d="M512.85,695.87l197-128.68c2.1-1.26,2.51-4.19,1.26-6.29s-4.19-2.51-6.29-1.26l-197,128.68c-2.1,1.26-2.51,4.19-1.26,6.29,.84,1.26,2.51,2.1,3.77,2.1s1.68,0,2.51-.84Z"/>
    <path d="M729.97,554.19l5.03-3.35c2.1-1.26,2.51-4.19,1.26-6.29s-4.19-2.51-6.29-1.26l-5.03,3.35c-2.1,1.26-2.51,4.19-1.26,6.29,.84,1.26,2.51,2.1,3.77,2.1s1.68,0,2.51-.84Z"/>
    <path d="M530.87,710.12l199.93-133.29c2.1-1.26,2.51-4.19,1.26-6.29s-4.19-2.51-6.29-1.26l-199.93,133.29c-2.1,1.26-2.51,4.19-1.26,6.29,.84,1.26,2.51,2.1,3.77,2.1s1.68,0,2.51-.84Z"/>
    <path d="M550.15,723.53l108.56-74.19c2.1-1.26,2.51-4.19,1.26-6.29s-4.19-2.51-6.29-1.26l-108.56,74.19c-2.1,1.26-2.51,4.19-1.26,6.29,.84,1.26,2.1,2.1,3.77,2.1s1.68,0,2.51-.84Z"/>
    <path d="M663.74,645.99l110.66-75.45c2.1-1.26,2.51-4.19,1.26-6.29-1.26-2.1-4.19-2.51-6.29-1.26l-110.66,75.45c-2.1,1.26-2.51,4.19-1.26,6.29,.84,1.26,2.1,2.1,3.77,2.1s1.68,0,2.51-.84Z"/>
    <path d="M625.18,697.54l47.36-33.11c2.1-1.26,2.51-4.19,1.26-6.29s-4.19-2.51-6.29-1.26l-47.36,33.11c-2.1,1.26-2.51,4.19-1.26,6.29,.84,1.26,2.1,2.1,3.77,2.1s1.68,0,2.51-.84Z"/>
    <path d="M685.12,655.63l98.92-69.16c2.1-1.26,2.51-4.19,1.26-6.29s-4.19-2.51-6.29-1.26l-98.92,69.16c-2.1,1.26-2.51,4.19-1.26,6.29,.84,1.26,2.1,2.1,3.77,2.1s1.68,0,2.51-.84Z"/>
    <path d="M649.07,706.35l37.72-26.83c2.1-1.26,2.51-4.19,1.26-6.29s-4.19-2.51-6.29-1.26l-37.72,26.83c-2.1,1.26-2.51,4.19-1.26,6.29,.84,1.26,2.1,2.1,3.77,2.1s1.68,0,2.51-.84Z"/>
    <path d="M707.75,664.43l28.08-20.12c2.1-1.26,2.51-4.19,1.26-6.29s-4.19-2.51-6.29-1.26l-28.08,20.12c-2.1,1.26-2.51,4.19-1.26,6.29,.84,1.26,2.1,2.1,3.77,2.1s1.68,0,2.51-.84Z"/>
    <path d="M783.62,610.36l2.93-2.1c2.1-1.26,2.51-4.19,1.26-6.29s-4.19-2.51-6.29-1.26l-2.93,2.1c-2.1,1.26-2.51,4.19-1.26,6.29,.84,1.26,2.1,2.1,3.77,2.1s1.68,0,2.51-.84Z"/>
    <path d="M758.47,627.96l3.77-2.51c2.1-1.26,2.51-4.19,1.26-6.29s-4.19-2.51-6.29-1.26l-3.77,2.51c-2.1,1.26-2.51,4.19-1.26,6.29,.84,1.26,2.1,2.1,3.77,2.1s1.68,0,2.51-.84Z"/>
    <path d="M726.19,675.75l26.83-19.7c2.1-1.68,2.51-4.19,.84-6.29-1.68-2.1-4.19-2.51-6.29-.84l-26.83,19.7c-2.1,1.68-2.51,4.19-.84,6.29,.84,1.26,2.1,1.68,3.77,1.68s1.68,0,2.51-.84Z"/>
    <path d="M652.42,729.4l25.57-18.86c2.1-1.68,2.51-4.19,.84-6.29-1.68-2.1-4.19-2.51-6.29-.84l-25.57,18.86c-2.1,1.68-2.51,4.19-.84,6.29,.84,1.26,2.1,1.68,3.77,1.68s1.68,0,2.51-.84Z"/>
    <path d="M742.96,687.9l23.47-17.6c2.1-1.68,2.51-4.19,.84-6.29-1.68-2.1-4.19-2.51-6.29-.84l-23.47,17.6c-2.1,1.68-2.51,4.19-.84,6.29,.84,1.26,2.1,1.68,3.77,1.68s2.1,0,2.51-.84Z"/>
    <path d="M759.73,700.48l29.76-22.63c2.1-1.68,2.51-4.19,.84-6.29-1.68-2.1-4.19-2.51-6.29-.84l-29.76,22.63c-2.1,1.68-2.51,4.19-.84,6.29,.84,1.26,2.1,1.68,3.77,1.68s2.1,0,2.93-.84h-.42Z"/>
    <path d="M777.33,711.79l35.63-27.66c2.1-1.68,2.51-4.19,.84-6.29-1.68-2.1-4.19-2.51-6.29-.84l-35.63,27.66c-2.1,1.68-2.51,4.19-.84,6.29,.84,1.26,2.1,1.68,3.77,1.68s2.1,0,2.93-.84h-.42Z"/>
    <path d="M793.26,724.37l.84-.84c2.1-1.68,2.1-4.61,.84-6.29-1.68-2.1-4.61-2.51-6.29-.84l-.84,.84c-2.1,1.68-2.1,4.61-.84,6.29,.84,1.26,2.1,1.68,3.77,1.68s2.1,0,2.93-.84h-.42Z"/>
    <path d="M802.48,716.82l25.15-20.12c2.1-1.68,2.1-4.61,.84-6.29-1.68-2.1-4.61-2.1-6.29-.84l-25.15,20.12c-2.1,1.68-2.1,4.61-.84,6.29,.84,1.26,2.1,1.68,3.35,1.68s2.1,0,2.93-.84Z"/>
    <path d="M841.88,710.54l.84-.84c2.1-1.68,2.1-4.61,.84-6.29-1.68-2.1-4.61-2.1-6.29-.84l-.84,.84c-2.1,1.68-2.1,4.61-.84,6.29,.84,1.26,2.1,1.68,3.35,1.68s2.1,0,2.93-.84Z"/>
    <path d="M815.05,731.91l16.77-13.41c2.1-1.68,2.1-4.61,.84-6.29-1.68-2.1-4.61-2.1-6.29-.84l-16.77,13.41c-2.1,1.68-2.1,4.61-.84,6.29,.84,1.26,2.1,1.68,3.35,1.68s2.1,0,2.93-.84Z"/>
  </g>
</svg>